<svg xmlns="http://www.w3.org/2000/svg" width="1280" height="720" viewBox="0 0 1280 720" fill="none">
  <rect width="1280" height="720" fill="#0F172A"/>
  <rect x="40" y="40" width="1200" height="640" rx="24" fill="#E2E8F0"/>
  <rect x="76" y="84" width="1128" height="64" rx="16" fill="#FFFFFF"/>
  <rect x="96" y="104" width="240" height="24" rx="12" fill="#0F172A" opacity="0.85"/>
  <rect x="76" y="172" width="320" height="472" rx="18" fill="#FFFFFF"/>
  <rect x="420" y="172" width="380" height="220" rx="18" fill="#FFFFFF"/>
  <rect x="824" y="172" width="380" height="472" rx="18" fill="#FFFFFF"/>
  <text x="108" y="214" fill="#0F172A" font-family="Arial, sans-serif" font-size="28" font-weight="700">Mutation Summary</text>
  <text x="452" y="214" fill="#0F172A" font-family="Arial, sans-serif" font-size="28" font-weight="700">Mutation Timeline</text>
  <text x="856" y="214" fill="#0F172A" font-family="Arial, sans-serif" font-size="28" font-weight="700">Event Inspector</text>
  <rect x="108" y="244" width="120" height="92" rx="14" fill="#F8FAFC" stroke="#CBD5E1"/>
  <rect x="244" y="244" width="120" height="92" rx="14" fill="#F8FAFC" stroke="#CBD5E1"/>
  <rect x="108" y="352" width="120" height="92" rx="14" fill="#F8FAFC" stroke="#CBD5E1"/>
  <rect x="244" y="352" width="120" height="92" rx="14" fill="#F8FAFC" stroke="#CBD5E1"/>
  <text x="140" y="280" fill="#0F172A" font-family="Arial, sans-serif" font-size="30" font-weight="700">18</text>
  <text x="134" y="310" fill="#475569" font-family="Arial, sans-serif" font-size="18">events</text>
  <text x="276" y="280" fill="#0F172A" font-family="Arial, sans-serif" font-size="30" font-weight="700">7</text>
  <text x="270" y="310" fill="#475569" font-family="Arial, sans-serif" font-size="18">success</text>
  <text x="140" y="388" fill="#0F172A" font-family="Arial, sans-serif" font-size="30" font-weight="700">2</text>
  <text x="138" y="418" fill="#475569" font-family="Arial, sans-serif" font-size="18">errors</text>
  <text x="276" y="388" fill="#0F172A" font-family="Arial, sans-serif" font-size="30" font-weight="700">3</text>
  <text x="264" y="418" fill="#475569" font-family="Arial, sans-serif" font-size="18">retries</text>
  <rect x="452" y="244" width="316" height="56" rx="14" fill="#F8FAFC" stroke="#CBD5E1"/>
  <rect x="452" y="316" width="316" height="56" rx="14" fill="#F8FAFC" stroke="#CBD5E1"/>
  <text x="474" y="278" fill="#0F172A" font-family="Arial, sans-serif" font-size="20" font-weight="700">flow: createTodo</text>
  <text x="474" y="348" fill="#0F172A" font-family="Arial, sans-serif" font-size="20" font-weight="700">consistency: immediate</text>
  <rect x="856" y="244" width="316" height="44" rx="12" fill="#F8FAFC" stroke="#CBD5E1"/>
  <rect x="856" y="300" width="316" height="44" rx="12" fill="#F8FAFC" stroke="#CBD5E1"/>
  <rect x="856" y="356" width="316" height="44" rx="12" fill="#F8FAFC" stroke="#CBD5E1"/>
  <text x="878" y="272" fill="#0F172A" font-family="Arial, sans-serif" font-size="18">type: flow:success</text>
  <text x="878" y="328" fill="#0F172A" font-family="Arial, sans-serif" font-size="18">invalidations: tag + path</text>
  <text x="878" y="384" fill="#0F172A" font-family="Arial, sans-serif" font-size="18">meta: feature=todos</text>
  <text x="76" y="664" fill="#475569" font-family="Arial, sans-serif" font-size="22">Mutaflow Devtools overview mock for README screenshots</text>
</svg>
