<svg xmlns="http://www.w3.org/2000/svg" width="1280" height="720" viewBox="0 0 1280 720" fill="none">
  <rect width="1280" height="720" fill="#111827"/>
  <rect x="52" y="52" width="1176" height="616" rx="24" fill="#F8FAFC"/>
  <rect x="92" y="96" width="1096" height="68" rx="18" fill="#FFFFFF"/>
  <text x="122" y="138" fill="#0F172A" font-family="Arial, sans-serif" font-size="30" font-weight="700">MutationDevtoolsPanel</text>
  <rect x="92" y="196" width="280" height="420" rx="18" fill="#FFFFFF"/>
  <rect x="396" y="196" width="792" height="420" rx="18" fill="#FFFFFF"/>
  <text x="122" y="236" fill="#0F172A" font-family="Arial, sans-serif" font-size="24" font-weight="700">Filters</text>
  <rect x="122" y="264" width="220" height="52" rx="12" fill="#F8FAFC" stroke="#CBD5E1"/>
  <rect x="122" y="336" width="220" height="52" rx="12" fill="#F8FAFC" stroke="#CBD5E1"/>
  <text x="138" y="297" fill="#64748B" font-family="Arial, sans-serif" font-size="18">flowName = createTodo</text>
  <text x="138" y="369" fill="#64748B" font-family="Arial, sans-serif" font-size="18">eventType = flow:success</text>
  <text x="426" y="236" fill="#0F172A" font-family="Arial, sans-serif" font-size="24" font-weight="700">Inspector details</text>
  <rect x="426" y="264" width="730" height="60" rx="12" fill="#F8FAFC" stroke="#CBD5E1"/>
  <rect x="426" y="340" width="730" height="60" rx="12" fill="#F8FAFC" stroke="#CBD5E1"/>
  <rect x="426" y="416" width="730" height="60" rx="12" fill="#F8FAFC" stroke="#CBD5E1"/>
  <rect x="426" y="492" width="730" height="92" rx="12" fill="#F8FAFC" stroke="#CBD5E1"/>
  <text x="448" y="302" fill="#0F172A" font-family="Arial, sans-serif" font-size="18">consistency.strategy = immediate</text>
  <text x="448" y="378" fill="#0F172A" font-family="Arial, sans-serif" font-size="18">readYourOwnWrites = true</text>
  <text x="448" y="454" fill="#0F172A" font-family="Arial, sans-serif" font-size="18">invalidations = [tag:todos.list, path:/todos/123]</text>
  <text x="448" y="530" fill="#0F172A" font-family="Arial, sans-serif" font-size="18">meta = { feature: "todos", source: "next-app" }</text>
  <text x="92" y="650" fill="#475569" font-family="Arial, sans-serif" font-size="22">Mutaflow Devtools inspector mock for README screenshots</text>
</svg>
